<?xml version="1.0" standalone="no"?>
<!DOCTYPE svg PUBLIC "-//W3C//DTD SVG 20010904//EN"
 "http://www.w3.org/TR/2001/REC-SVG-20010904/DTD/svg10.dtd">
<svg version="1.0" xmlns="http://www.w3.org/2000/svg"
 width="700.000000pt" height="700.000000pt" viewBox="0 0 700.000000 700.000000"
 preserveAspectRatio="xMidYMid meet">
<metadata>
Created by potrace 1.14, written by Peter Selinger 2001-2017
</metadata>
<g transform="translate(0.000000,700.000000) scale(0.100000,-0.100000)"
fill="#000000" stroke="none">
<path d="M2497 6784 c-1 -1 -40 -4 -87 -8 -107 -7 -135 -12 -240 -43 -174 -50
-327 -141 -458 -271 -195 -194 -295 -415 -347 -767 -3 -22 -33 -191 -66 -375
-33 -184 -69 -384 -80 -445 -10 -60 -21 -123 -24 -140 -25 -137 -35 -195 -40
-225 -3 -19 -8 -42 -10 -50 -2 -8 -7 -33 -10 -55 -3 -23 -8 -52 -10 -65 -7
-35 -32 -174 -56 -310 -11 -63 -22 -122 -24 -130 -2 -8 -7 -31 -10 -50 -6 -39
-42 -243 -49 -275 -3 -18 -10 -60 -22 -135 -3 -14 -11 -59 -19 -100 -8 -41
-17 -91 -20 -110 -3 -19 -16 -96 -30 -170 -13 -74 -31 -173 -39 -220 -9 -47
-17 -96 -20 -110 -6 -31 -37 -207 -42 -235 -1 -11 -7 -42 -13 -70 -5 -27 -12
-68 -15 -90 -4 -23 -9 -52 -11 -65 -3 -14 -12 -62 -20 -107 -23 -125 -44 -245
-49 -273 -3 -14 -14 -77 -25 -140 -17 -99 -51 -288 -67 -370 -2 -14 -7 -41
-10 -60 -3 -19 -18 -107 -34 -195 -16 -88 -32 -176 -35 -195 -8 -45 -12 -70
-28 -155 -7 -38 -12 -88 -11 -111 9 -205 145 -378 338 -430 40 -11 148 -14
496 -14 404 1 455 3 542 20 175 36 342 125 485 258 73 68 185 128 273 145 46
10 268 12 913 11 l852 -1 65 -23 c36 -12 78 -29 94 -37 38 -20 124 -82 134
-97 4 -6 30 -30 57 -51 28 -22 52 -42 55 -46 10 -11 106 -66 155 -88 94 -44
125 -54 240 -76 101 -20 941 -21 1005 -2 25 7 49 14 53 15 26 4 102 51 138 85
130 125 178 300 134 487 -1 3 -5 25 -9 50 -4 25 -11 68 -17 95 -27 148 -39
214 -44 255 -4 24 -8 47 -10 50 -2 3 -6 24 -9 46 -4 22 -9 51 -11 64 -4 21
-20 113 -40 228 -2 12 -6 30 -9 40 -3 9 -7 35 -11 57 -6 45 -32 197 -40 235
-3 14 -9 50 -15 80 -5 30 -12 69 -15 85 -3 17 -7 44 -10 60 -3 17 -7 41 -10
55 -3 14 -14 77 -25 140 -12 63 -23 126 -25 140 -3 14 -14 78 -25 142 -12 64
-23 127 -25 140 -3 13 -12 61 -20 108 -8 47 -17 96 -20 110 -2 14 -14 79 -25
145 -12 66 -30 167 -41 225 -11 58 -22 121 -25 140 -3 19 -7 46 -10 60 -2 14
-13 75 -24 135 -11 61 -22 124 -25 140 -2 17 -7 41 -10 55 -5 24 -19 104 -29
165 -3 17 -8 43 -12 58 -3 16 -7 38 -9 50 -3 23 -41 243 -50 287 -18 94 -25
129 -29 155 -2 17 -14 84 -26 150 -11 66 -23 134 -26 150 -2 17 -8 50 -14 75
-8 39 -29 153 -44 245 -3 17 -7 40 -10 52 -2 11 -8 43 -11 70 -4 26 -11 64
-15 83 -5 19 -11 51 -14 70 -3 19 -8 45 -10 57 -3 11 -8 43 -12 70 -5 26 -9
50 -9 53 -1 3 -5 25 -9 50 -35 191 -43 226 -78 320 -19 51 -45 107 -91 190
-55 101 -209 267 -312 336 -118 79 -250 140 -355 163 -90 20 -107 22 -195 27
-73 5 -2093 12 -2098 8z m1718 -687 c120 -39 194 -92 270 -192 161 -213 137
-525 -54 -715 -61 -61 -124 -100 -216 -133 -59 -22 -70 -22 -690 -24 -693 -2
-697 -1 -820 58 -147 72 -254 217 -291 394 -10 47 -4 169 12 232 51 207 237
376 443 400 26 3 47 6 48 7 1 1 275 1 610 0 l608 -1 80 -26z m-545 -1523 c14
-4 27 -8 30 -8 28 -5 117 -47 167 -78 117 -74 157 -129 538 -739 197 -316 365
-585 374 -598 9 -13 19 -29 23 -35 81 -121 359 -578 380 -625 66 -144 88 -341
51 -466 -75 -255 -247 -419 -498 -475 -87 -19 -126 -19 -1270 -17 l-1180 2
-88 31 c-48 18 -113 47 -144 65 -83 49 -212 181 -250 256 -72 141 -85 336 -33
487 25 75 13 54 302 516 143 228 265 424 271 435 7 10 39 63 72 115 33 53 65
105 72 116 6 10 76 122 155 247 79 125 152 243 163 261 175 288 264 394 384
454 78 40 177 68 251 71 30 2 56 4 57 5 4 4 147 -13 173 -20z"/>
<path d="M3415 3704 c-45 -17 -77 -44 -108 -94 -21 -34 -22 -46 -24 -313 -1
-177 2 -289 9 -310 30 -91 105 -141 210 -140 106 0 182 55 206 148 7 23 11
145 11 289 0 273 -7 315 -57 370 -15 16 -43 35 -62 44 -47 20 -136 23 -185 6z"/>
<path d="M3457 2618 c-108 -23 -178 -112 -172 -219 4 -85 37 -136 119 -184
101 -59 214 -23 290 94 24 38 27 50 23 100 -6 72 -18 102 -59 144 -59 60 -125
82 -201 65z"/>
</g>
</svg>
