<?xml version="1.0" encoding="iso-8859-1"?>
<!-- Uploaded to: SVG Repo, www.svgrepo.com, Generator: SVG Repo Mixer Tools -->
<svg fill="#000000" height="800px" width="800px" version="1.1" id="Layer_1" xmlns="http://www.w3.org/2000/svg" xmlns:xlink="http://www.w3.org/1999/xlink" 
	 viewBox="0 0 298.819 298.819" xml:space="preserve">
<g id="XMLID_254_">
	<g>
		<g>
			<path d="M288.061,226.458c-10.561-11.125-25.938-6.82-39.233-4.633c-1.238,6.554-4.631,12.745-10.101,17.41
				c-11.327,9.658-27.708,9.509-38.827,0.392c-1.909,6.567-3.238,11.865-0.252,17.963c4.859,9.924,20.888,2.703,39.776,0.015
				c18.888-2.688,27.266,6.97,48.496,2.363C309.151,255.361,293.828,232.534,288.061,226.458z"/>
			<circle cx="207.13" cy="68.894" r="32.74"/>
			<path d="M228.701,227.475c6.234-5.316,6.978-14.678,1.663-20.912l-43.68-51.227l-22.717-49.683l20.259,24.3
				c4.388-8.826,2.447-19.829-5.356-26.571l-28.477-24.605c-4.666-4.032-10.804-5.933-16.933-5.243
				c-6.128,0.69-11.691,3.906-15.345,8.874l-64.871,88.207c-3.359,4.568-4.489,10.402-3.078,15.893
				c1.176,4.576,3.448,6.971,7.907,11.068c5.96,5.818,31.316,28.631,31.316,28.631l-71.466-0.493c-0.042,0-0.083,0-0.125,0
				c-9.773,0-17.73,7.889-17.798,17.677c-0.068,9.831,7.847,17.855,17.677,17.923l118.598,0.818c0.042,0,0.082,0.001,0.123,0.001
				c7.355-0.001,13.959-4.527,16.608-11.396c2.664-6.909,0.772-14.746-4.75-19.679l-28.487-25.448l26.557-30.736l-9.341-56.885
				l23.577,51.565c0.571,1.249,1.312,2.411,2.203,3.456l45.022,52.801C213.105,232.047,222.467,232.79,228.701,227.475z"/>
		</g>
	</g>
</g>
</svg>